<?xml version="1.0" encoding="utf-8"?>
<!-- Generator: Adobe Illustrator 19.2.1, SVG Export Plug-In . SVG Version: 6.00 Build 0)  -->
<svg version="1.1" id="Layer_1" xmlns="http://www.w3.org/2000/svg" xmlns:xlink="http://www.w3.org/1999/xlink" x="0px" y="0px"
	 viewBox="0 0 36 36" style="enable-background:new 0 0 36 36;" xml:space="preserve">
<style type="text/css">
	.st0{fill:#FFFFFF;}
	.st1{fill:#B6C6CE;}
	.st2{fill:none;stroke:#FFFFFF;stroke-width:3;stroke-miterlimit:10;}
</style>
<g>
	<path class="st0" d="M11.7,10.4c0.1,0,0.1,0,0.2,0.1c0.4,0.5,0.7,0.9,1.1,1.4c0,0,0,0,0,0.1c0,0.1,0,0.2,0,0.2c0,0-0.1,0.1-0.1,0.1
		c-0.8,1.8-1,3.9-0.7,6.6c0,0.1,0,0.2,0,0.3l7.8-8.7c-0.1,0-0.2-0.1-0.4-0.1c-0.2,0-0.3-0.2-0.2-0.4c0.1-0.5,0.1-1,0.2-1.5
		c0-0.2,0.1-0.3,0.2-0.3c0.3-0.2,0.6-0.6,0.6-1.1c0.1-0.6-0.2-1.3-0.7-1.4c-0.6-0.1-1.1,0.4-1.2,1.2c-0.1,0.5,0.1,0.9,0.3,1.1
		C19,8,19,8.2,19,8.3c-0.1,0.5-0.1,1.1-0.2,1.6c0,0.2-0.2,0.4-0.3,0.3c-0.6,0-1.1,0-1.7,0.1c0,0-0.1,0-0.1-0.1c0,0,0-0.1,0-0.1
		c0,0,0-0.1,0-0.1c0.2-0.2,0.2-0.5,0.1-0.8c-0.1-0.4-0.4-0.6-0.7-0.6c-0.4,0-0.7,0.5-0.5,1c0.1,0.3,0.2,0.5,0.4,0.6c0,0,0,0,0.1,0.1
		c0,0,0,0.1,0,0.1c0,0.1,0,0.1-0.1,0.1c-0.8,0.2-1.5,0.6-2.2,1.1c-0.1,0.1-0.2,0-0.3-0.1c0-0.1-0.1-0.1-0.1-0.2
		c-0.3-0.4-0.6-0.8-0.9-1.2c-0.1-0.1-0.1-0.2,0-0.2c0.1-0.3,0-0.8-0.2-1.1c-0.4-0.5-1-0.7-1.4-0.4c-0.4,0.3-0.5,1-0.1,1.6
		C11,10.2,11.4,10.4,11.7,10.4z"/>
	<path class="st0" d="M29.2,18.5c-0.5-0.1-0.9,0.1-1.2,0.4C28,19,27.9,19,27.8,19c-0.6-0.1-1.2-0.2-1.7-0.2c-0.1,0-0.3-0.1-0.2-0.2
		c0-0.6,0-1.2-0.1-1.8c0,0,0,0,0-0.1c0,0,0,0,0.1,0c0,0,0,0,0,0c0.2,0.2,0.5,0.2,0.8,0.1c0.4-0.1,0.6-0.4,0.6-0.7
		c0-0.4-0.5-0.7-1-0.5c-0.3,0.1-0.5,0.3-0.6,0.5c0,0-0.1,0-0.1,0c-0.1-0.3-0.2-0.5-0.3-0.8L16,25.4c0.9,0.4,1.6,0.4,1.6,0.4
		c0.6,0,1.1,0,1.7-0.1c0,0,0,0.1,0,0.1c-0.2,0.2-0.2,0.5-0.1,0.8c0.1,0.4,0.4,0.6,0.7,0.6c0.2,0,0.3-0.1,0.4-0.2
		c0.2-0.2,0.3-0.5,0.2-0.8c-0.1-0.3-0.3-0.5-0.5-0.6c0,0,0,0,0,0c0.8-0.2,1.5-0.5,2.2-1c0.2-0.1,0.4,0,0.6,0.2
		c0.2,0.3,0.5,0.7,0.8,1c0.1,0.1,0.1,0.3,0.1,0.5c-0.1,0.3,0,0.7,0.3,1c0.3,0.4,0.8,0.6,1.2,0.5c0.1,0,0.2-0.1,0.3-0.2
		c0.3-0.3,0.3-0.9,0-1.3c-0.2-0.4-0.6-0.6-1-0.6c-0.2,0-0.3-0.1-0.4-0.2c-0.3-0.3-0.5-0.7-0.8-1c-0.2-0.2-0.2-0.5,0-0.6
		c0.4-0.4,0.8-0.8,1.1-1.3c0,0,0,0,0,0c0,0,0,0,0,0.1c0,0.2,0.2,0.5,0.5,0.6c0.3,0.2,0.7,0.1,0.9-0.1c0.3-0.3,0.1-0.8-0.3-1
		c-0.3-0.2-0.6-0.2-0.8-0.1c0,0,0,0,0,0c0.4-0.7,0.8-1.5,0.9-2.4c0-0.1,0.2-0.2,0.3-0.2c0.5,0.1,1.1,0.2,1.7,0.2
		c0.1,0,0.2,0.1,0.2,0.2c0.2,0.3,0.6,0.6,1.1,0.7c0.6,0.1,1.3-0.2,1.4-0.7C30.5,19.2,30,18.6,29.2,18.5z"/>
</g>
<g>
	<path class="st1" d="M17.5,25.9c-0.2,0-0.7-0.1-1.3-0.6l-0.2,0.2c0.1,0,0.2,0.1,0.3,0.1c0.2,0.1,0.4,0.3,0.3,0.6
		c-0.1,0.4-0.1,0.7-0.2,1.1c0,0.3-0.2,0.5-0.4,0.7c0,0-0.1,0.1-0.1,0.1c-0.2,0.2-0.3,0.5-0.4,0.9c-0.1,0.6,0.2,1.2,0.7,1.3
		c0.3,0.1,0.7,0,0.9-0.3c0.2-0.2,0.3-0.5,0.3-0.8c0-0.4-0.1-0.8-0.2-1C17.1,28,17,27.7,17,27.5c0.1-0.4,0.1-0.8,0.2-1.2
		C17.2,26.1,17.3,25.9,17.5,25.9z"/>
	<path class="st1" d="M6.8,17.4c0.5,0.1,0.9-0.1,1.2-0.3C8,17,8.2,17,8.3,17c0.6,0.1,1.1,0.1,1.6,0.2c0.2,0,0.3,0.2,0.3,0.3
		c0,0.6,0,1.2,0.1,1.7c0,0,0,0.1-0.1,0.1c0,0,0,0-0.1,0c0,0-0.1,0-0.1,0c-0.2-0.2-0.5-0.2-0.8-0.1c-0.4,0.1-0.6,0.4-0.6,0.7
		c0,0.4,0.5,0.7,1,0.5c0.3-0.1,0.5-0.2,0.6-0.4c0,0,0-0.1,0.1-0.1c0,0,0,0,0.1,0c0.1,0,0.1,0,0.1,0.1c0.1,0.3,0.2,0.5,0.3,0.8
		l1.8-2.1c-0.6-2.3-0.4-5,0.3-6.5c-0.4,0.4-0.8,0.8-1.1,1.2c0,0-0.1,0-0.1,0c0,0-0.1,0-0.1-0.1c0,0,0,0,0-0.1c0-0.2-0.2-0.5-0.5-0.6
		c-0.3-0.2-0.7-0.1-0.9,0.1c-0.3,0.3-0.1,0.8,0.3,1c0.2,0.1,0.5,0.2,0.7,0.1c0,0,0.1,0,0.1,0c0,0,0.1,0,0.1,0.1c0,0,0.1,0.1,0,0.1
		c-0.4,0.7-0.7,1.4-0.9,2.2c0,0.1-0.2,0.2-0.4,0.2c-0.5-0.1-1-0.2-1.6-0.2c-0.1,0-0.3-0.1-0.3-0.2c-0.2-0.3-0.6-0.6-1.1-0.6
		c-0.6-0.1-1.3,0.2-1.4,0.7C5.5,16.8,6,17.3,6.8,17.4z"/>
</g>
<path class="st1" d="M21,21.2c-0.2,0.1-0.3,0.3-0.2,0.5c0.1,0.2,0.3,0.3,0.5,0.3c0.2-0.1,0.3-0.3,0.2-0.5
	C21.4,21.3,21.2,21.2,21,21.2z"/>
<path class="st1" d="M23.6,18.3C23.5,18.1,23.2,18,23,18c-0.2,0.1-0.3,0.3-0.3,0.5c0.1,0.2,0.3,0.3,0.5,0.2
	C23.5,18.7,23.6,18.5,23.6,18.3z"/>
<path class="st1" d="M16.8,12.8c0.2-0.1,0.3-0.3,0.2-0.5c-0.1-0.2-0.3-0.3-0.5-0.3c-0.2,0.1-0.3,0.3-0.2,0.5
	C16.3,12.8,16.6,12.9,16.8,12.8z"/>
<path class="st1" d="M12.7,15.1c0.1,0.2,0.3,0.3,0.6,0.3c0.2-0.1,0.3-0.3,0.2-0.5c-0.1-0.2-0.3-0.3-0.6-0.3
	C12.8,14.7,12.6,14.9,12.7,15.1z"/>
<line class="st2" x1="7.2" y1="30" x2="28.8" y2="6"/>
<path class="st0" d="M18,0C8.1,0,0,8.1,0,18c0,9.9,8.1,18,18,18s18-8.1,18-18C36,8.1,27.9,0,18,0z M3,18C3,9.7,9.7,3,18,3
	c3.3,0,6.4,1.1,8.9,2.9L6.9,28.1C4.5,25.4,3,21.9,3,18z M18,33c-3.3,0-6.4-1.1-8.9-2.9L29.1,7.9C31.5,10.6,33,14.1,33,18
	C33,26.3,26.3,33,18,33z"/>
</svg>
