<?xml version="1.0" encoding="utf-8"?>
<!-- Generator: Adobe Illustrator 19.2.1, SVG Export Plug-In . SVG Version: 6.00 Build 0)  -->
<svg version="1.1" id="Layer_1" xmlns="http://www.w3.org/2000/svg" xmlns:xlink="http://www.w3.org/1999/xlink" x="0px" y="0px"
	 viewBox="0 0 64 32" style="enable-background:new 0 0 64 32;" xml:space="preserve">
<style type="text/css">
	.st0{fill:#FFFFFF;}
</style>
<g>
	<path class="st0" d="M12.3,14.8H6.9c-0.1,0-0.3,0.1-0.3,0.3v2.6c0,0.1,0.1,0.3,0.3,0.3H9v3.3c0,0-0.5,0.2-1.8,0.2
		c-1.5,0-3.7-0.6-3.7-5.3c0-4.7,2.2-5.3,4.3-5.3c1.8,0,2.6,0.3,3.1,0.5c0.2,0,0.3-0.1,0.3-0.2l0.6-2.5c0-0.1,0-0.1-0.1-0.2
		C11.6,8,10.4,7.3,7.3,7.3C3.7,7.3,0,8.9,0,16.2c0,7.3,4.2,8.4,7.8,8.4c2.9,0,4.7-1.3,4.7-1.3c0.1,0,0.1-0.1,0.1-0.2V15
		C12.6,14.9,12.5,14.8,12.3,14.8z"/>
	<path class="st0" d="M40,8.2C40,8.1,39.9,8,39.8,8h-3c-0.1,0-0.3,0.1-0.3,0.3c0,0,0,5.9,0,5.9h-4.7V8.2c0-0.1-0.1-0.3-0.2-0.3h-3
		c-0.1,0-0.3,0.1-0.3,0.3v15.8c0,0.1,0.1,0.3,0.3,0.3h3c0.1,0,0.2-0.1,0.2-0.3v-6.8h4.7c0,0,0,6.8,0,6.8c0,0.1,0.1,0.3,0.3,0.3h3
		c0.1,0,0.2-0.1,0.2-0.3V8.2z"/>
	<g>
		<g>
			<ellipse class="st0" cx="16.1" cy="10.3" rx="2" ry="2"/>
			<path class="st0" d="M17.8,20.7c0-0.4,0-7.3,0-7.3c0-0.1-0.1-0.3-0.3-0.3h-3c-0.1,0-0.3,0.1-0.3,0.3c0,0,0,8.8,0,10.5
				c0,0.3,0.2,0.4,0.4,0.4c0,0,1.3,0,2.7,0c0.3,0,0.4-0.1,0.4-0.4C17.8,23.4,17.8,21.2,17.8,20.7z"/>
		</g>
	</g>
	<path class="st0" d="M51.6,13.2h-3c-0.1,0-0.2,0.1-0.2,0.3v7.8c0,0-0.8,0.6-1.8,0.6c-1.1,0-1.4-0.5-1.4-1.6c0-1.1,0-6.8,0-6.8
		c0-0.1-0.1-0.3-0.2-0.3h-3c-0.1,0-0.3,0.1-0.3,0.3c0,0,0,4.1,0,7.3c0,3.2,1.8,3.9,4.2,3.9c2,0,3.6-1.1,3.6-1.1s0.1,0.6,0.1,0.6
		c0,0.1,0.1,0.1,0.2,0.1l1.9,0c0.1,0,0.3-0.1,0.3-0.3l0-10.6C51.8,13.3,51.7,13.2,51.6,13.2z"/>
	<path class="st0" d="M59.8,12.8c-1.7,0-2.9,0.8-2.9,0.8V8.2c0-0.1-0.1-0.3-0.2-0.3h-3c-0.1,0-0.3,0.1-0.3,0.3v15.8
		c0,0.1,0.1,0.3,0.3,0.3c0,0,2.1,0,2.1,0c0.1,0,0.2,0,0.2-0.1c0.1-0.1,0.1-0.7,0.1-0.7s1.2,1.2,3.6,1.2c2.8,0,4.3-1.4,4.3-6.3
		C64,13.5,61.5,12.8,59.8,12.8z M58.6,21.8c-1,0-1.7-0.5-1.7-0.5v-5c0,0,0.7-0.4,1.6-0.5c1.1-0.1,2.1,0.2,2.1,2.8
		C60.5,21.3,60,21.8,58.6,21.8z"/>
	<path class="st0" d="M26.5,13.2h-2.3c0,0,0-3,0-3c0-0.1-0.1-0.2-0.2-0.2H21c-0.1,0-0.2,0.1-0.2,0.2v3.1c0,0-1.6,0.4-1.7,0.4
		c-0.1,0-0.2,0.1-0.2,0.2v1.9c0,0.1,0.1,0.3,0.3,0.3h1.6c0,0,0,2,0,4.7c0,3.5,2.4,3.8,4.1,3.8c0.8,0,1.7-0.2,1.8-0.3
		c0.1,0,0.1-0.1,0.1-0.2l0-2.1c0-0.1-0.1-0.3-0.3-0.3c-0.1,0-0.5,0.1-0.8,0.1c-1.1,0-1.5-0.5-1.5-1.2c0-0.7,0-4.5,0-4.5h2.3
		c0.1,0,0.3-0.1,0.3-0.3v-2.4C26.8,13.3,26.7,13.2,26.5,13.2z"/>
</g>
</svg>
