<?xml version="1.0" encoding="utf-8"?>
<!-- Generator: Adobe Illustrator 19.2.1, SVG Export Plug-In . SVG Version: 6.00 Build 0)  -->
<svg version="1.1" id="Layer_1" xmlns="http://www.w3.org/2000/svg" xmlns:xlink="http://www.w3.org/1999/xlink" x="0px" y="0px"
	 viewBox="0 0 64 32" style="enable-background:new 0 0 64 32;" xml:space="preserve">
<style type="text/css">
	.st0{fill:#FFFFFF;}
</style>
<g>
	<path class="st0" d="M9.2,27.6h1.5c0.7,0,1.1-0.4,1.1-1.1V9.2h4.2v18.1c0,2.3-1.6,3.8-4.1,3.8H9.2V27.6z M11.4,4.5
		c0-1.5,1-2.4,2.5-2.4c1.5,0,2.4,1,2.4,2.4c0,1.5-1,2.5-2.4,2.5C12.4,6.9,11.4,6,11.4,4.5z"/>
	<path class="st0" d="M18.5,4.5c0-1.5,1-2.4,2.5-2.4c1.5,0,2.5,1,2.5,2.4c0,1.5-1,2.5-2.5,2.5C19.5,6.9,18.5,6,18.5,4.5z M18.8,9.2
		H23v16.1h-4.2V9.2z"/>
	<path class="st0" d="M31.4,12.9v7.5c0,0.7,0.4,1.1,1.1,1.1H34v3.8h-2.6c-2.5,0-4.1-1.5-4.1-3.8v-8.6h-2.1V9.2h1.3
		c0.7,0,1.1-0.4,1.1-1.1V5h3.9v4.2h2.7v3.7H31.4z"/>
	<path class="st0" d="M35.9,20.7v-0.6h4v0.5c0,0.8,0.6,1.5,1.5,1.5s1.5-0.5,1.5-1.4c0-2.8-6.9-1.3-6.9-7.1c0-3.1,2.2-4.8,5.3-4.8
		c3.3,0,5.5,1.9,5.5,4.7v0.6h-4v-0.5c0-0.7-0.6-1.3-1.4-1.3c-0.8,0-1.3,0.5-1.3,1.3c0,2.7,6.9,1,6.9,6.9c0,3.2-2.1,5.1-5.5,5.1
		C38.1,25.7,35.9,23.7,35.9,20.7z"/>
	<path class="st0" d="M48.8,4.5c0-1.5,1-2.4,2.5-2.4c1.5,0,2.5,1,2.5,2.4c0,1.5-1,2.5-2.5,2.5C49.8,6.9,48.8,6,48.8,4.5z M49.2,9.2
		h4.2v16.1h-4.2V9.2z"/>
</g>
</svg>
